HIERARCHY
ROOT hip
{
	OFFSET 0.000000 0.000000 0.000000 
	CHANNELS 6 Xposition Yposition Zposition Xrotation Zrotation Yrotation
	JOINT abdomen
	{
		OFFSET 0.000000 3.402643 0.000000 
		CHANNELS 3 Xrotation Zrotation Yrotation
		JOINT chest
		{
			OFFSET 0.000000 8.438565 -0.680529 
			CHANNELS 3 Xrotation Zrotation Yrotation
			JOINT neck
			{
				OFFSET 0.000000 10.207942 -0.272212 
				CHANNELS 3 Xrotation Zrotation Yrotation
				JOINT head
				{
					OFFSET 0.000000 3.130431 0.000000 
					CHANNELS 3 Xrotation Zrotation Yrotation
					End Site
					{
						OFFSET 0.000000 3.130435 0.000000 
					}
				}
			}
			JOINT lCollar
			{
				OFFSET 3.470700 6.669187 -0.816635 
				CHANNELS 3 Yrotation Zrotation Xrotation
				JOINT lShldr
				{
					OFFSET 3.198488 0.000000 0.000000 
					CHANNELS 3 Zrotation Yrotation Xrotation
					JOINT lForeArm
					{
						OFFSET 10.139888 0.000000 0.000000 
						CHANNELS 3 Yrotation Zrotation Xrotation
						JOINT lHand
						{
							OFFSET 8.370511 0.000000 0.000000 
							CHANNELS 3 Zrotation Yrotation Xrotation
							End Site
							{
								OFFSET 4.083176 0.000000 0.000000 
							}
						}
					}
				}
			}
			JOINT rCollar
			{
				OFFSET -3.470700 6.669187 -0.816635 
				CHANNELS 3 Yrotation Zrotation Xrotation
				JOINT rShldr
				{
					OFFSET -3.198488 0.000000 0.000000 
					CHANNELS 3 Zrotation Yrotation Xrotation
					JOINT rForeArm
					{
						OFFSET -10.139888 0.000000 0.000000 
						CHANNELS 3 Yrotation Zrotation Xrotation
						JOINT rHand
						{
							OFFSET -8.370511 0.000000 0.000000 
							CHANNELS 3 Zrotation Yrotation Xrotation
							End Site
							{
								OFFSET -4.083176 0.000000 0.000000 
							}
						}
					}
				}
			}
		}
	}
	JOINT lThigh
	{
		OFFSET 5.308129 -1.633274 1.361059 
		CHANNELS 3 Xrotation Zrotation Yrotation
		JOINT lShin
		{
			OFFSET -2.041588 -20.007561 0.000000 
			CHANNELS 3 Xrotation Zrotation Yrotation
			JOINT lFoot
			{
				OFFSET 0.000000 -19.190928 -1.224953 
				CHANNELS 3 Xrotation Yrotation Zrotation
				End Site
				{
					OFFSET 0.000000 -2.449906 4.627600 
				}
			}
		}
	}
	JOINT rThigh
	{
		OFFSET -5.308129 -1.633274 1.361059 
		CHANNELS 3 Xrotation Zrotation Yrotation
		JOINT rShin
		{
			OFFSET 2.041588 -20.007561 0.000000 
			CHANNELS 3 Xrotation Zrotation Yrotation
			JOINT rFoot
			{
				OFFSET 0.000000 -19.190928 -1.224953 
				CHANNELS 3 Xrotation Yrotation Zrotation
				End Site
				{
					OFFSET 0.000000 -2.449906 4.627600 
				}
			}
		}
	}
}
MOTION
Frames: 18
Frame Time: 0.016667
1.189751 43.411549 -3.966226 -1.419680 -4.119830 -20.406099 -14.930400 0.640589 0.684230 16.513100 0.944908 0.304310 4.683310 -6.943240 3.161100 9.191730 0.679760 1.967370 2.000000 -2.000000 0.000000 -89.411301 10.393400 -153.341003 118.964996 -0.143909 0.137961 0.066076 -0.060084 -158.914001 -2.000000 2.000000 0.000000 87.266502 0.218252 -130.468002 -122.842003 0.145998 0.096907 1.581700 -0.796441 -137.244995 -11.501309 4.715174 5.982179 37.350208 2.813382 2.628383 -26.164469 12.779216 7.221398 -8.395688 2.259450 13.589398 22.036085 -3.381527 -1.552636 -13.731653 -5.525043 -1.143884 
1.190493 43.409218 -3.995276 -1.449080 -4.129540 -20.149799 -14.842300 0.670744 0.737132 16.630301 0.925557 0.336877 4.502520 -6.862010 3.237210 9.123520 0.728609 1.990440 2.000000 -2.000000 0.000000 -89.449699 9.906030 -152.910995 119.101997 -0.143603 0.137791 0.066025 -0.059957 -158.865005 -2.000000 2.000000 0.000000 87.383904 0.296544 -130.576004 -123.164001 0.145399 0.096518 1.580850 -0.799873 -136.962006 -11.564816 4.720781 5.846594 37.380211 2.803301 2.624563 -26.048862 12.731177 7.159170 -8.329823 2.253347 13.517950 22.017593 -3.375625 -1.561477 -13.831021 -5.622336 -1.178474 
1.191224 43.406906 -4.024316 -1.488260 -4.139230 -19.892799 -14.754200 0.697477 0.780918 16.747601 0.915941 0.358950 4.322350 -6.781410 3.304280 9.065080 0.777435 2.023290 2.000000 -2.000000 0.000000 -89.478401 9.418660 -152.479996 119.238998 -0.143298 0.137621 0.065984 -0.059855 -158.826004 -2.000000 2.000000 0.000000 87.501198 0.365070 -130.682999 -123.476997 0.144821 0.096138 1.573070 -0.810168 -136.669006 -11.604951 4.727173 5.730334 37.418453 2.805347 2.605245 -25.974665 12.663109 7.100921 -8.306569 2.271812 13.441608 22.015326 -3.393933 -1.574594 -13.912369 -5.708315 -1.217077 
1.205883 43.403175 -4.060792 -1.507930 -4.188010 -19.567900 -14.676000 0.726789 0.803908 16.845301 0.857573 0.383834 4.302190 -6.723080 3.309890 9.074970 0.816313 2.017110 2.000000 -2.000000 0.000000 -89.545998 8.941200 -151.981003 119.414001 -0.142906 0.137400 0.065974 -0.059830 -158.815994 -2.000000 2.000000 0.000000 87.588799 0.423375 -130.496994 -123.858002 0.144118 0.095670 1.581260 -0.800258 -136.990997 -11.698064 4.736681 5.488778 37.458195 2.802256 2.613288 -25.901217 12.543203 7.032874 -8.223119 2.278183 13.341981 21.976124 -3.386338 -1.554090 -14.051903 -5.859093 -1.282570 
1.220533 43.399448 -4.097268 -1.527590 -4.227020 -19.252899 -14.607600 0.756095 0.826880 16.943001 0.808936 0.398138 4.282040 -6.664740 3.315470 9.084900 0.864917 2.021570 2.000000 -2.000000 0.000000 -89.613602 8.453970 -151.481995 119.589996 -0.142515 0.137179 0.065974 -0.059830 -158.815994 -2.000000 2.000000 0.000000 87.666603 0.481682 -130.311996 -124.248001 0.143401 0.095185 1.582650 -0.797326 -137.313995 -11.850921 4.729261 5.248786 37.556774 2.803465 2.631621 -25.810799 12.455708 6.926603 -8.183759 2.307627 13.257483 21.965338 -3.389785 -1.545147 -14.207637 -6.023655 -1.346138 
1.239158 43.398033 -4.120444 -1.595980 -4.148790 -19.084000 -14.558500 0.734687 0.852875 16.962601 0.779714 0.410016 4.493580 -6.786320 3.214760 9.201970 0.825614 1.970980 2.000000 -2.000000 0.000000 -89.671600 8.093460 -151.091003 119.717003 -0.142233 0.137018 0.065964 -0.059805 -158.806000 -2.000000 2.000000 0.000000 87.764099 0.481546 -130.223999 -124.560997 0.142830 0.094794 1.581970 -0.796694 -137.264999 -11.813351 4.589703 5.135946 37.508083 2.799556 2.631134 -25.768850 12.468580 6.938828 -8.216183 2.213900 13.158522 22.041590 -3.408735 -1.547902 -14.256388 -6.057528 -1.367087 
1.257772 43.396740 -4.143631 -1.664380 -4.080320 -18.915001 -14.519200 0.716678 0.887906 16.982100 0.750490 0.421873 4.705360 -6.917510 3.113570 9.319040 0.786321 1.929990 2.000000 -2.000000 0.000000 -89.739403 7.723200 -150.688995 119.844002 -0.141952 0.136857 0.065953 -0.059779 -158.796997 -2.000000 2.000000 0.000000 87.861504 0.471631 -130.126007 -124.883003 0.142243 0.094387 1.581430 -0.796188 -137.225998 -11.819170 4.447984 5.004466 37.498177 2.795249 2.620094 -25.734629 12.504621 6.924592 -8.167651 2.081987 13.068020 22.061131 -3.410199 -1.548011 -14.331743 -6.131032 -1.400102 
1.296293 43.390820 -4.179287 -1.752260 -3.972760 -18.755800 -14.450600 0.689245 0.925499 17.021200 0.721281 0.443723 4.584100 -6.952070 3.186260 9.289770 0.796143 1.950010 2.000000 -2.000000 0.000000 -89.836304 7.255540 -150.160995 120.029999 -0.141540 0.136620 0.065943 -0.059754 -158.787003 -2.000000 2.000000 0.000000 87.968697 0.471376 -129.960007 -125.282997 0.141517 0.093877 1.581530 -0.800515 -137.011002 -11.882616 4.245811 4.819296 37.528740 2.788569 2.636876 -25.736723 12.458713 6.893706 -8.283377 1.965559 13.039492 22.296558 -3.426970 -1.568343 -14.476885 -6.186524 -1.438832 
1.334814 43.385033 -4.214931 -1.830340 -3.865220 -18.607300 -14.372100 0.674689 0.969769 17.050501 0.692062 0.465414 4.462380 -6.995650 3.269260 9.260470 0.796241 1.978900 2.000000 -2.000000 0.000000 -89.943001 6.797670 -149.623001 120.224998 -0.141109 0.136370 0.065933 -0.059728 -158.776993 -2.000000 2.000000 0.000000 88.066002 0.471107 -129.783997 -125.694000 0.140777 0.093350 1.581720 -0.804910 -136.806000 -11.930203 4.045910 4.643003 37.539352 2.781665 2.644703 -25.722750 12.422402 6.868152 -8.329715 1.803939 13.028625 22.436050 -3.421279 -1.575687 -14.585116 -6.229589 -1.468576 
1.372639 43.372936 -4.290242 -1.644250 -3.807030 -18.260201 -14.441100 0.655802 0.863976 16.952900 0.662750 0.417248 4.320450 -6.980900 3.357000 9.211740 0.825581 2.019940 2.000000 -2.000000 0.000000 -90.020599 6.466440 -149.231995 120.419998 -0.140677 0.136118 0.066004 -0.059906 -158.845993 -2.000000 2.000000 0.000000 88.133904 0.490266 -129.539993 -126.065002 0.140111 0.092868 1.573490 -0.810561 -136.697998 -12.317450 4.036405 4.402572 37.570827 2.760143 2.656642 -25.576576 12.256003 6.746204 -8.617518 1.808826 12.874480 22.508278 -3.405287 -1.591410 -14.703198 -6.374067 -1.542407 
1.410463 43.360962 -4.365577 -1.448430 -3.758570 -17.922800 -14.500300 0.640344 0.767337 16.855200 0.643187 0.368551 4.178630 -6.975850 3.445170 9.153200 0.845231 2.050150 2.000000 -2.000000 0.000000 -90.098099 6.144980 -148.841003 120.615997 -0.140247 0.135864 0.066076 -0.060084 -158.914001 -2.000000 2.000000 0.000000 88.201797 0.499662 -129.296005 -126.435997 0.139448 0.092382 1.581870 -0.809248 -136.600006 -12.665192 4.019921 4.152168 37.484230 2.736196 2.650265 -25.350231 12.112835 6.638443 -8.853426 1.779812 12.726255 22.520962 -3.388393 -1.598401 -14.814980 -6.504016 -1.620051 
1.482112 43.352600 -4.419870 -1.477510 -3.592560 -17.837299 -14.412200 0.587150 0.791549 16.884600 0.574989 0.373257 3.998220 -7.174100 3.540020 9.113940 0.787002 2.083420 2.000000 -2.000000 0.000000 -90.243797 5.589510 -148.261993 120.830002 -0.139775 0.135583 0.066251 -0.060514 -159.080002 -2.000000 2.000000 0.000000 88.201401 0.606730 -129.061005 -126.962997 0.138511 0.091684 1.573830 -0.819227 -136.298004 -12.821086 3.808516 4.206512 37.523838 2.728724 2.647107 -25.249596 12.044614 6.601840 -9.030833 1.555900 12.705539 22.710455 -3.380343 -1.614469 -14.866537 -6.476650 -1.630431 
1.553773 43.344109 -4.474186 -1.506600 -3.426550 -17.761700 -14.324000 0.527877 0.827147 16.923700 0.516538 0.387128 3.817180 -7.371680 3.647110 9.064920 0.728796 2.106880 2.000000 -2.000000 0.000000 -90.399200 5.043800 -147.684998 121.044998 -0.139304 0.135301 0.066416 -0.060919 -159.235992 -2.000000 2.000000 0.000000 88.200996 0.704035 -128.826996 -127.490997 0.137580 0.090977 1.572600 -0.822179 -136.005005 -12.916270 3.586408 4.240017 37.516724 2.704068 2.668483 -25.184395 11.988348 6.531591 -9.225967 1.346171 12.683642 22.925928 -3.392143 -1.614693 -14.957981 -6.451159 -1.655324 
1.618738 43.345909 -4.503977 -1.555270 -3.270280 -17.684799 -14.187200 0.493555 0.846334 17.060400 0.487373 0.390147 3.684930 -7.472310 3.746940 9.045330 0.709403 2.143980 2.000000 -2.000000 0.000000 -90.554703 4.537010 -147.175995 121.221001 -0.138919 0.135068 0.066531 -0.061198 -159.343994 -2.000000 2.000000 0.000000 88.191002 0.899201 -128.729004 -127.832001 0.136981 0.090514 1.564620 -0.832144 -135.720993 -12.960832 3.370967 4.320164 37.458515 2.695713 2.666696 -25.020964 12.020232 6.496395 -9.342935 1.127511 12.630378 23.042009 -3.408943 -1.616827 -14.917172 -6.474882 -1.654611 
1.683692 43.347839 -4.533782 -1.594150 -3.114030 -17.618601 -14.050400 0.446285 0.858566 17.206900 0.448451 0.403441 3.561940 -7.572170 3.857490 9.025730 0.690008 2.181090 2.000000 -2.000000 0.000000 -90.720001 4.030220 -146.667999 121.397003 -0.138535 0.134835 0.066635 -0.061450 -159.440994 -2.000000 2.000000 0.000000 88.190804 1.094370 -128.630997 -128.173996 0.136384 0.090048 1.563550 -0.835163 -135.447998 -13.004001 3.150632 4.391366 37.389988 2.689801 2.656156 -24.864594 12.050502 6.482381 -9.418670 0.891639 12.610885 23.168097 -3.427675 -1.628987 -14.926712 -6.504694 -1.660336 
1.766362 43.350925 -4.556810 -1.643040 -3.104190 -17.352501 -13.904100 0.374959 0.806574 17.314400 0.263250 0.375713 3.565990 -7.756960 3.980810 9.064590 0.621792 2.234130 2.000000 -2.000000 0.000000 -90.875198 3.523800 -145.964005 121.503998 -0.138301 0.134691 0.066427 -0.060945 -159.246002 -2.000000 2.000000 0.000000 88.239502 1.201670 -128.552994 -128.604004 0.135638 0.089457 1.546280 -0.849566 -135.018005 -13.058878 3.020200 4.253652 37.390862 2.681851 2.663311 -24.738155 12.031712 6.417544 -9.398044 0.749067 12.401801 23.206480 -3.432628 -1.619858 -14.888103 -6.437468 -1.654511 
1.849042 43.354019 -4.579839 -1.691920 -3.094360 -17.086500 -13.757900 0.300144 0.745195 17.421900 0.078008 0.347290 3.579940 -7.941670 4.104580 9.103480 0.563311 2.287950 2.000000 -2.000000 0.000000 -91.040199 3.007590 -145.268997 121.622002 -0.138046 0.134535 0.066210 -0.060413 -159.041000 -2.000000 2.000000 0.000000 88.288200 1.299210 -128.473999 -129.033005 0.134896 0.088860 1.545650 -0.856929 -134.598007 -13.039062 2.899396 4.122178 37.303616 2.674562 2.672164 -24.583164 12.016862 6.373855 -9.384790 0.611015 12.201598 23.275150 -3.441365 -1.640375 -14.854486 -6.362416 -1.634402 
1.900931 43.357750 -4.615642 -1.535360 -3.036020 -16.930500 -13.689700 0.293292 0.726929 17.509800 0.029256 0.340245 3.626980 -8.165460 4.348220 9.161880 0.495054 2.399570 2.000000 -2.000000 0.000000 -91.225098 2.686280 -144.779999 121.640999 -0.138003 0.134508 0.066107 -0.060160 -158.942993 -2.000000 2.000000 0.000000 88.278397 1.357760 -128.445007 -129.335999 0.134376 0.088436 1.544270 -0.863430 -134.138000 -13.343151 2.833134 4.031951 37.363029 2.662926 2.667510 -24.521374 12.017179 6.341062 -9.619349 0.527047 12.135815 23.345980 -3.428730 -1.637251 -14.791420 -6.242676 -1.631362 
